<svg xmlns="http://www.w3.org/2000/svg" width="133" viewBox="0 0 99.75 37.5" height="50" version="1.0"><path d="M22.77 33.416a20.076 20.076 0 01-4.437 1.36c-1.5.28-2.918.421-4.25.421-1.336 0-2.54-.074-3.61-.219a17.278 17.278 0 01-3.171-.719c-1.055-.351-1.961-.804-2.72-1.359-1.71-1.207-2.562-2.914-2.562-5.125 0-1.32.309-2.55.922-3.687a8.696 8.696 0 012.39-2.844c2.095-1.602 4.38-2.406 6.86-2.406 2.969 0 5.176.87 6.625 2.609.719.887 1.078 1.96 1.078 3.219 0 1.25-.593 2.336-1.78 3.25-1.188.918-2.438 1.375-3.75 1.375-.313 0-.47-.16-.47-.485 0-.32.145-.55.438-.687.3-.145.66-.281 1.078-.406.414-.125.836-.274 1.266-.454 1.02-.468 1.53-1.218 1.53-2.25 0-1.039-.476-1.828-1.421-2.359-.95-.531-2.594-.797-4.938-.797-2.343 0-4.156.594-5.437 1.781-1.281 1.188-1.922 2.606-1.922 4.25 0 2.157.961 3.696 2.89 4.61 1.72.824 3.77 1.234 6.157 1.234 4.101 0 7.426-1.172 9.969-3.515 1.789-1.645 2.687-3.711 2.687-6.204 0-1.5-.531-2.945-1.594-4.343a25.31 25.31 0 00-1.546-1.86c-.563-.613-1.133-1.226-1.704-1.843a28.737 28.737 0 01-1.546-1.829c-1.063-1.343-1.594-2.597-1.594-3.765 0-1.164.191-2.172.578-3.016.383-.844.89-1.57 1.516-2.187a9.686 9.686 0 012.187-1.61c1.656-.925 3.41-1.39 5.266-1.39a9.01 9.01 0 014.5 1.172c1.52.836 2.28 2.109 2.28 3.828 0 .68-.241 1.273-.718 1.781-.48.5-1.015.75-1.61.75-.593 0-1.085-.172-1.468-.516-.375-.343-.562-.726-.562-1.156 0-.426.18-.879.546-1.36.364-.488.547-.89.547-1.202 0-.32-.136-.618-.406-.891a2.605 2.605 0 00-1.031-.61c-.836-.25-1.594-.374-2.281-.374-1.586 0-2.946.468-4.079 1.406-1.136.937-1.703 2.246-1.703 3.922 0 .906.567 1.976 1.703 3.203a92.789 92.789 0 001.672 1.703 52.63 52.63 0 011.828 1.937 20.423 20.423 0 011.672 2.141c1.133 1.606 1.703 3.277 1.703 5.016 0 1.73-.343 3.297-1.03 4.703-.688 1.398-1.59 2.555-2.704 3.469-1.105.918-2.387 1.695-3.844 2.328zm9.384-4.282c0-1.125.27-2.203.812-3.234a8.43 8.43 0 012.11-2.64c1.914-1.551 3.863-2.329 5.843-2.329 1.989 0 3.617.532 4.89 1.594 1.27 1.063 1.907 2.39 1.907 3.984 0 1.586-.437 3.012-1.312 4.282-.875 1.273-2.032 2.261-3.47 2.968-1.429.707-2.991 1.063-4.687 1.063-1.699 0-3.14-.531-4.328-1.594-1.18-1.07-1.765-2.437-1.765-4.094zm7.312 4.297c.688 0 1.332-.222 1.938-.672a4.24 4.24 0 001.375-1.75c.613-1.375.921-2.789.921-4.25 0-1.457-.273-2.562-.812-3.312-.531-.758-1.293-1.14-2.281-1.14-.98 0-1.953.64-2.922 1.921-.961 1.281-1.438 2.918-1.438 4.906 0 2.868 1.07 4.297 3.22 4.297zm18.388-28.75h3.625c-.637 1.106-1.622 3.559-2.954 7.36a209.925 209.925 0 00-3.64 11.468c-1.094 3.844-1.64 6.196-1.64 7.047 0 .856.1 1.282.312 1.282.625 0 1.601-.946 2.937-2.844l.938.906c-.657 1.137-1.368 2.09-2.125 2.86-1.344 1.374-2.434 2.062-3.266 2.062-1.531 0-2.297-.914-2.297-2.75 0-2.738.906-7.047 2.719-12.922 1.82-5.883 3.617-10.707 5.39-14.469zm4.889 25.375c.082 1.711 1.238 2.563 3.469 2.563.82 0 1.675-.235 2.562-.703.883-.469 1.602-1.02 2.156-1.657l.969.625c-1.242 2.075-3.219 3.34-5.937 3.797-.594.094-1.168.141-1.72.141-1.616 0-2.96-.531-4.03-1.594-1.075-1.07-1.61-2.375-1.61-3.906 0-1.54.469-2.961 1.406-4.266a9.688 9.688 0 013.516-3.047c1.414-.718 2.813-1.078 4.188-1.078 1.375 0 2.562.32 3.562.953 1.008.625 1.523 1.47 1.547 2.532.02 1.054-.293 1.965-.938 2.734-.636.774-1.445 1.36-2.421 1.766-1.961.793-3.883 1.187-5.766 1.187zm-.14-1.234c1.655-.063 2.987-.328 4-.797 1.007-.469 1.71-1.004 2.109-1.61.394-.6.593-1.238.593-1.906 0-.664-.172-1.156-.515-1.468-.344-.32-.715-.485-1.11-.485-.949 0-1.824.336-2.625 1a6.356 6.356 0 00-1.828 2.407c-.418.949-.625 1.902-.625 2.859zm15.826 6c-.637 0-1.137-.195-1.5-.578-.356-.395-.532-.93-.532-1.61 0-.675.172-1.597.516-2.765a49.84 49.84 0 011.063-3.188c.351-.957.53-1.597.53-1.922 0-.32-.105-.484-.312-.484-.523 0-1.367 1.031-2.531 3.094l-1.5-.875c2.188-3.707 4.203-5.563 6.047-5.563 1.25 0 1.875.793 1.875 2.375 0 .47-.152 1.211-.453 2.22l-1.61 4.608c-.156.438-.234.836-.234 1.188 0 .344.129.516.39.516.508 0 1.442-.938 2.798-2.813l.953.875c-.813 1.492-1.778 2.684-2.891 3.578-1.105.899-1.977 1.344-2.61 1.344zm6.375-20.5c0 .605-.203 1.156-.61 1.656-.406.492-.953.735-1.64.735-.688 0-1.203-.204-1.547-.61-.344-.414-.516-.937-.516-1.562 0-.633.211-1.192.64-1.672.427-.488.973-.735 1.641-.735.676 0 1.18.215 1.516.641.344.43.516.945.516 1.547zm8.792-9.641h3.625c-.637 1.106-1.621 3.559-2.953 7.36a209.925 209.925 0 00-3.64 11.468c-1.095 3.844-1.641 6.196-1.641 7.047 0 .856.101 1.282.312 1.282.625 0 1.602-.946 2.938-2.844l.937.906c-.656 1.137-1.367 2.09-2.125 2.86-1.344 1.374-2.433 2.062-3.266 2.062-1.53 0-2.296-.914-2.296-2.75 0-2.738.906-7.047 2.718-12.922 1.82-5.883 3.618-10.707 5.391-14.469zm0 0" fill="#fff"/></svg>