<svg xmlns="http://www.w3.org/2000/svg" xmlns:xlink="http://www.w3.org/1999/xlink" width="133" zoomAndPan="magnify" viewBox="0 0 99.75 37.5" height="50" preserveAspectRatio="xMidYMid meet" version="1.0"><defs><g/></defs><g fill="#ffffff" fill-opacity="1"><g transform="translate(2.473427, 34.46258)"><g><path d="M 20.296875 -1.046875 C 18.835938 -0.410156 17.359375 0.0390625 15.859375 0.3125 C 14.359375 0.59375 12.941406 0.734375 11.609375 0.734375 C 10.273438 0.734375 9.070312 0.660156 8 0.515625 C 6.9375 0.378906 5.878906 0.140625 4.828125 -0.203125 C 3.773438 -0.554688 2.867188 -1.007812 2.109375 -1.5625 C 0.398438 -2.769531 -0.453125 -4.476562 -0.453125 -6.6875 C -0.453125 -8.007812 -0.144531 -9.238281 0.46875 -10.375 C 1.082031 -11.519531 1.878906 -12.46875 2.859375 -13.21875 C 4.953125 -14.820312 7.238281 -15.625 9.71875 -15.625 C 12.6875 -15.625 14.894531 -14.753906 16.34375 -13.015625 C 17.0625 -12.128906 17.421875 -11.054688 17.421875 -9.796875 C 17.421875 -8.546875 16.828125 -7.460938 15.640625 -6.546875 C 14.453125 -5.628906 13.203125 -5.171875 11.890625 -5.171875 C 11.578125 -5.171875 11.421875 -5.332031 11.421875 -5.65625 C 11.421875 -5.976562 11.566406 -6.207031 11.859375 -6.34375 C 12.160156 -6.488281 12.519531 -6.625 12.9375 -6.75 C 13.351562 -6.875 13.773438 -7.023438 14.203125 -7.203125 C 15.222656 -7.671875 15.734375 -8.421875 15.734375 -9.453125 C 15.734375 -10.492188 15.257812 -11.28125 14.3125 -11.8125 C 13.363281 -12.34375 11.71875 -12.609375 9.375 -12.609375 C 7.03125 -12.609375 5.21875 -12.015625 3.9375 -10.828125 C 2.65625 -9.640625 2.015625 -8.222656 2.015625 -6.578125 C 2.015625 -4.421875 2.976562 -2.882812 4.90625 -1.96875 C 6.625 -1.144531 8.675781 -0.734375 11.0625 -0.734375 C 15.164062 -0.734375 18.488281 -1.90625 21.03125 -4.25 C 22.820312 -5.894531 23.71875 -7.960938 23.71875 -10.453125 C 23.71875 -11.953125 23.1875 -13.398438 22.125 -14.796875 C 21.65625 -15.421875 21.140625 -16.039062 20.578125 -16.65625 C 20.015625 -17.269531 19.445312 -17.882812 18.875 -18.5 C 18.3125 -19.113281 17.796875 -19.722656 17.328125 -20.328125 C 16.265625 -21.671875 15.734375 -22.925781 15.734375 -24.09375 C 15.734375 -25.257812 15.925781 -26.265625 16.3125 -27.109375 C 16.695312 -27.953125 17.203125 -28.679688 17.828125 -29.296875 C 18.460938 -29.921875 19.191406 -30.457031 20.015625 -30.90625 C 21.671875 -31.832031 23.425781 -32.296875 25.28125 -32.296875 C 26.894531 -32.296875 28.394531 -31.90625 29.78125 -31.125 C 31.300781 -30.289062 32.0625 -29.015625 32.0625 -27.296875 C 32.0625 -26.617188 31.820312 -26.023438 31.34375 -25.515625 C 30.863281 -25.015625 30.328125 -24.765625 29.734375 -24.765625 C 29.140625 -24.765625 28.648438 -24.9375 28.265625 -25.28125 C 27.890625 -25.625 27.703125 -26.007812 27.703125 -26.4375 C 27.703125 -26.863281 27.882812 -27.316406 28.25 -27.796875 C 28.613281 -28.285156 28.796875 -28.6875 28.796875 -29 C 28.796875 -29.320312 28.660156 -29.617188 28.390625 -29.890625 C 28.117188 -30.160156 27.773438 -30.363281 27.359375 -30.5 C 26.523438 -30.75 25.765625 -30.875 25.078125 -30.875 C 23.492188 -30.875 22.132812 -30.40625 21 -29.46875 C 19.863281 -28.53125 19.296875 -27.222656 19.296875 -25.546875 C 19.296875 -24.640625 19.863281 -23.570312 21 -22.34375 C 21.507812 -21.8125 22.066406 -21.242188 22.671875 -20.640625 C 23.273438 -20.035156 23.882812 -19.390625 24.5 -18.703125 C 25.113281 -18.015625 25.671875 -17.300781 26.171875 -16.5625 C 27.304688 -14.957031 27.875 -13.285156 27.875 -11.546875 C 27.875 -9.816406 27.53125 -8.25 26.84375 -6.84375 C 26.15625 -5.445312 25.253906 -4.289062 24.140625 -3.375 C 23.035156 -2.457031 21.753906 -1.679688 20.296875 -1.046875 Z M 20.296875 -1.046875 "/></g></g></g><g fill="#ffffff" fill-opacity="1"><g transform="translate(32.16924, 34.46258)"><g><path d="M -0.015625 -5.328125 C -0.015625 -6.453125 0.253906 -7.53125 0.796875 -8.5625 C 1.335938 -9.601562 2.039062 -10.484375 2.90625 -11.203125 C 4.820312 -12.753906 6.769531 -13.53125 8.75 -13.53125 C 10.738281 -13.53125 12.367188 -13 13.640625 -11.9375 C 14.910156 -10.875 15.546875 -9.546875 15.546875 -7.953125 C 15.546875 -6.367188 15.109375 -4.941406 14.234375 -3.671875 C 13.359375 -2.398438 12.203125 -1.410156 10.765625 -0.703125 C 9.335938 0.00390625 7.773438 0.359375 6.078125 0.359375 C 4.378906 0.359375 2.9375 -0.171875 1.75 -1.234375 C 0.570312 -2.304688 -0.015625 -3.671875 -0.015625 -5.328125 Z M 7.296875 -1.03125 C 7.984375 -1.03125 8.628906 -1.253906 9.234375 -1.703125 C 9.835938 -2.148438 10.296875 -2.734375 10.609375 -3.453125 C 11.222656 -4.828125 11.53125 -6.242188 11.53125 -7.703125 C 11.53125 -9.160156 11.257812 -10.265625 10.71875 -11.015625 C 10.1875 -11.773438 9.425781 -12.15625 8.4375 -12.15625 C 7.457031 -12.15625 6.484375 -11.515625 5.515625 -10.234375 C 4.554688 -8.953125 4.078125 -7.316406 4.078125 -5.328125 C 4.078125 -2.460938 5.148438 -1.03125 7.296875 -1.03125 Z M 7.296875 -1.03125 "/></g></g></g><g fill="#ffffff" fill-opacity="1"><g transform="translate(49.525391, 34.46258)"><g><path d="M 8.328125 -29.78125 L 11.953125 -29.78125 C 11.316406 -28.675781 10.332031 -26.222656 9 -22.421875 C 7.675781 -18.628906 6.460938 -14.804688 5.359375 -10.953125 C 4.265625 -7.109375 3.71875 -4.757812 3.71875 -3.90625 C 3.71875 -3.050781 3.820312 -2.625 4.03125 -2.625 C 4.65625 -2.625 5.632812 -3.570312 6.96875 -5.46875 L 7.90625 -4.5625 C 7.25 -3.425781 6.539062 -2.472656 5.78125 -1.703125 C 4.4375 -0.328125 3.347656 0.359375 2.515625 0.359375 C 0.984375 0.359375 0.21875 -0.554688 0.21875 -2.390625 C 0.21875 -5.128906 1.125 -9.4375 2.9375 -15.3125 C 4.757812 -21.195312 6.554688 -26.019531 8.328125 -29.78125 Z M 8.328125 -29.78125 "/></g></g></g><g fill="#ffffff" fill-opacity="1"><g transform="translate(58.617774, 34.46258)"><g><path d="M 4.125 -4.40625 C 4.207031 -2.695312 5.363281 -1.84375 7.59375 -1.84375 C 8.414062 -1.84375 9.269531 -2.078125 10.15625 -2.546875 C 11.039062 -3.015625 11.757812 -3.566406 12.3125 -4.203125 L 13.28125 -3.578125 C 12.039062 -1.503906 10.0625 -0.238281 7.34375 0.21875 C 6.75 0.3125 6.175781 0.359375 5.625 0.359375 C 4.007812 0.359375 2.664062 -0.171875 1.59375 -1.234375 C 0.519531 -2.304688 -0.015625 -3.609375 -0.015625 -5.140625 C -0.015625 -6.679688 0.453125 -8.101562 1.390625 -9.40625 C 2.328125 -10.71875 3.5 -11.734375 4.90625 -12.453125 C 6.320312 -13.171875 7.71875 -13.53125 9.09375 -13.53125 C 10.46875 -13.53125 11.65625 -13.210938 12.65625 -12.578125 C 13.664062 -11.953125 14.179688 -11.109375 14.203125 -10.046875 C 14.222656 -8.992188 13.910156 -8.082031 13.265625 -7.3125 C 12.628906 -6.539062 11.820312 -5.953125 10.84375 -5.546875 C 8.882812 -4.753906 6.960938 -4.359375 5.078125 -4.359375 Z M 3.984375 -5.640625 C 5.640625 -5.703125 6.972656 -5.96875 7.984375 -6.4375 C 8.992188 -6.90625 9.695312 -7.441406 10.09375 -8.046875 C 10.488281 -8.648438 10.6875 -9.285156 10.6875 -9.953125 C 10.6875 -10.617188 10.515625 -11.109375 10.171875 -11.421875 C 9.828125 -11.742188 9.457031 -11.90625 9.0625 -11.90625 C 8.113281 -11.90625 7.238281 -11.570312 6.4375 -10.90625 C 5.632812 -10.25 5.023438 -9.445312 4.609375 -8.5 C 4.191406 -7.550781 3.984375 -6.597656 3.984375 -5.640625 Z M 3.984375 -5.640625 "/></g></g></g><g fill="#ffffff" fill-opacity="1"><g transform="translate(74.428667, 34.46258)"><g><path d="M 4 0.359375 C 3.363281 0.359375 2.863281 0.164062 2.5 -0.21875 C 2.144531 -0.613281 1.96875 -1.148438 1.96875 -1.828125 C 1.96875 -2.503906 2.140625 -3.425781 2.484375 -4.59375 C 2.835938 -5.769531 3.191406 -6.832031 3.546875 -7.78125 C 3.898438 -8.738281 4.078125 -9.378906 4.078125 -9.703125 C 4.078125 -10.023438 3.972656 -10.1875 3.765625 -10.1875 C 3.242188 -10.1875 2.398438 -9.15625 1.234375 -7.09375 L -0.265625 -7.96875 C 1.921875 -11.675781 3.9375 -13.53125 5.78125 -13.53125 C 7.03125 -13.53125 7.65625 -12.738281 7.65625 -11.15625 C 7.65625 -10.6875 7.503906 -9.945312 7.203125 -8.9375 L 5.59375 -4.328125 C 5.4375 -3.890625 5.359375 -3.492188 5.359375 -3.140625 C 5.359375 -2.796875 5.488281 -2.625 5.75 -2.625 C 6.257812 -2.625 7.191406 -3.5625 8.546875 -5.4375 L 9.5 -4.5625 C 8.6875 -3.070312 7.722656 -1.878906 6.609375 -0.984375 C 5.503906 -0.0859375 4.632812 0.359375 4 0.359375 Z M 10.375 -20.140625 C 10.375 -19.535156 10.171875 -18.984375 9.765625 -18.484375 C 9.359375 -17.992188 8.8125 -17.75 8.125 -17.75 C 7.4375 -17.75 6.921875 -17.953125 6.578125 -18.359375 C 6.234375 -18.773438 6.0625 -19.296875 6.0625 -19.921875 C 6.0625 -20.554688 6.273438 -21.113281 6.703125 -21.59375 C 7.128906 -22.082031 7.675781 -22.328125 8.34375 -22.328125 C 9.019531 -22.328125 9.523438 -22.113281 9.859375 -21.6875 C 10.203125 -21.257812 10.375 -20.742188 10.375 -20.140625 Z M 10.375 -20.140625 "/></g></g></g><g fill="#ffffff" fill-opacity="1"><g transform="translate(85.267863, 34.46258)"><g><path d="M 8.328125 -29.78125 L 11.953125 -29.78125 C 11.316406 -28.675781 10.332031 -26.222656 9 -22.421875 C 7.675781 -18.628906 6.460938 -14.804688 5.359375 -10.953125 C 4.265625 -7.109375 3.71875 -4.757812 3.71875 -3.90625 C 3.71875 -3.050781 3.820312 -2.625 4.03125 -2.625 C 4.65625 -2.625 5.632812 -3.570312 6.96875 -5.46875 L 7.90625 -4.5625 C 7.25 -3.425781 6.539062 -2.472656 5.78125 -1.703125 C 4.4375 -0.328125 3.347656 0.359375 2.515625 0.359375 C 0.984375 0.359375 0.21875 -0.554688 0.21875 -2.390625 C 0.21875 -5.128906 1.125 -9.4375 2.9375 -15.3125 C 4.757812 -21.195312 6.554688 -26.019531 8.328125 -29.78125 Z M 8.328125 -29.78125 "/></g></g></g></svg>